<svg width="34" height="34" viewBox="0 0 34 34" fill="none" xmlns="http://www.w3.org/2000/svg">
<path d="M23.9834 0.333496H10.0167C3.95004 0.333496 0.333374 3.95016 0.333374 10.0168V23.9668C0.333374 30.0502 3.95004 33.6668 10.0167 33.6668H23.9667C30.0334 33.6668 33.65 30.0502 33.65 23.9835V10.0168C33.6667 3.95016 30.05 0.333496 23.9834 0.333496ZM21.65 17.8835L15.7667 23.7668C15.5167 24.0168 15.2 24.1335 14.8834 24.1335C14.5667 24.1335 14.25 24.0168 14 23.7668C13.5167 23.2835 13.5167 22.4835 14 22.0002L19 17.0002L14 12.0002C13.5167 11.5168 13.5167 10.7168 14 10.2335C14.4834 9.75016 15.2834 9.75016 15.7667 10.2335L21.65 16.1168C22.15 16.6002 22.15 17.4002 21.65 17.8835Z" fill="white"/>
</svg>
