<svg width="40" height="40" viewBox="0 0 40 40" fill="none" xmlns="http://www.w3.org/2000/svg">
<path d="M22.7484 20.0001L34.4298 8.31814C35.1901 7.55827 35.1901 6.32967 34.4298 5.56981C33.67 4.80994 32.4414 4.80994 31.6816 5.56981L19.9998 17.2518L8.31842 5.56981C7.55822 4.80994 6.33 4.80994 5.57015 5.56981C4.80995 6.32967 4.80995 7.55827 5.57015 8.31814L17.2516 20.0001L5.57015 31.6821C4.80995 32.442 4.80995 33.6706 5.57015 34.4305C5.94883 34.8095 6.44674 34.9999 6.94429 34.9999C7.44184 34.9999 7.93939 34.8095 8.31842 34.4305L19.9998 22.7485L31.6816 34.4305C32.0606 34.8095 32.5582 34.9999 33.0557 34.9999C33.5533 34.9999 34.0508 34.8095 34.4298 34.4305C35.1901 33.6706 35.1901 32.442 34.4298 31.6821L22.7484 20.0001Z" fill="black"/>
</svg>
