<svg width="30" height="36" viewBox="0 0 30 36" fill="none" xmlns="http://www.w3.org/2000/svg">
<path d="M29.3666 12.0832C27.6166 4.38317 20.9 0.916504 15 0.916504C15 0.916504 15 0.916504 14.9833 0.916504C9.09998 0.916504 2.36664 4.3665 0.616642 12.0665C-1.33336 20.6665 3.93331 27.9498 8.69998 32.5332C10.4666 34.2332 12.7333 35.0832 15 35.0832C17.2666 35.0832 19.5333 34.2332 21.2833 32.5332C26.05 27.9498 31.3166 20.6832 29.3666 12.0832ZM15 20.4332C12.1 20.4332 9.74998 18.0832 9.74998 15.1832C9.74998 12.2832 12.1 9.93317 15 9.93317C17.9 9.93317 20.25 12.2832 20.25 15.1832C20.25 18.0832 17.9 20.4332 15 20.4332Z" fill="white"/>
</svg>
