<svg width="28" height="34" viewBox="0 0 28 34" fill="none" xmlns="http://www.w3.org/2000/svg">
<path d="M21.0667 0.333496H6.93335C2.33335 0.333496 0.666687 2.00016 0.666687 6.6835V27.3168C0.666687 32.0002 2.33335 33.6668 6.93335 33.6668H21.05C25.6667 33.6668 27.3334 32.0002 27.3334 27.3168V6.6835C27.3334 2.00016 25.6667 0.333496 21.0667 0.333496ZM14 29.1668C12.4 29.1668 11.0834 27.8502 11.0834 26.2502C11.0834 24.6502 12.4 23.3335 14 23.3335C15.6 23.3335 16.9167 24.6502 16.9167 26.2502C16.9167 27.8502 15.6 29.1668 14 29.1668ZM17.3334 7.41683H10.6667C9.98335 7.41683 9.41669 6.85016 9.41669 6.16683C9.41669 5.4835 9.98335 4.91683 10.6667 4.91683H17.3334C18.0167 4.91683 18.5834 5.4835 18.5834 6.16683C18.5834 6.85016 18.0167 7.41683 17.3334 7.41683Z" fill="white"/>
</svg>
